<svg width="57" height="58" viewBox="0 0 57 58" fill="none" xmlns="http://www.w3.org/2000/svg">
<circle cx="28.5" cy="29" r="27.75" stroke="black" stroke-width="1.5"/>
<path d="M35.7917 29.7292C36.1943 29.7292 36.5208 29.4027 36.5208 29C36.5208 28.5974 36.1943 28.2708 35.7917 28.2708C35.389 28.2708 35.0625 28.5974 35.0625 29C35.0625 29.4027 35.389 29.7292 35.7917 29.7292Z" fill="black" stroke="black" stroke-width="1.5" stroke-linecap="round" stroke-linejoin="round"/>
<path d="M28.5 29.7292C28.9026 29.7292 29.2291 29.4027 29.2291 29C29.2291 28.5974 28.9026 28.2708 28.5 28.2708C28.0973 28.2708 27.7708 28.5974 27.7708 29C27.7708 29.4027 28.0973 29.7292 28.5 29.7292Z" fill="black" stroke="black" stroke-width="1.5" stroke-linecap="round" stroke-linejoin="round"/>
<path d="M21.2084 29.7292C21.6111 29.7292 21.9375 29.4027 21.9375 29C21.9375 28.5974 21.6111 28.2708 21.2084 28.2708C20.8056 28.2708 20.4792 28.5974 20.4792 29C20.4792 29.4027 20.8056 29.7292 21.2084 29.7292Z" fill="black" stroke="black" stroke-width="1.5" stroke-linecap="round" stroke-linejoin="round"/>
<path d="M28.5 43.5833C36.5541 43.5833 43.0834 37.0541 43.0834 29C43.0834 20.9458 36.5541 14.4167 28.5 14.4167C20.4459 14.4167 13.9167 20.9458 13.9167 29C13.9167 31.6562 14.6269 34.1466 15.8677 36.2917L14.6459 42.8542L21.2084 41.6324C23.3534 42.8731 25.8438 43.5833 28.5 43.5833Z" stroke="black" stroke-width="1.5" stroke-linecap="round" stroke-linejoin="round"/>
</svg>
