<svg width="30" height="30" viewBox="0 0 30 30" fill="none" xmlns="http://www.w3.org/2000/svg">
<path d="M15.125 21.125C18.4387 21.125 21.125 18.4387 21.125 15.125C21.125 11.8113 18.4387 9.125 15.125 9.125C11.8113 9.125 9.125 11.8113 9.125 15.125C9.125 18.4387 11.8113 21.125 15.125 21.125Z" stroke="white" stroke-width="1.5" stroke-linecap="round" stroke-linejoin="round"/>
<path d="M1.625 21.125V9.125C1.625 4.98287 4.98287 1.625 9.125 1.625H21.125C25.2671 1.625 28.625 4.98287 28.625 9.125V21.125C28.625 25.2671 25.2671 28.625 21.125 28.625H9.125C4.98287 28.625 1.625 25.2671 1.625 21.125Z" stroke="white" stroke-width="1.5"/>
<path d="M23.375 6.88838L23.3886 6.87329" stroke="white" stroke-width="1.5" stroke-linecap="round" stroke-linejoin="round"/>
</svg>
